<svg width="32" height="32" viewBox="0 0 32 32" fill="none" xmlns="http://www.w3.org/2000/svg">
<path d="M5.33325 24V14.6667M10.6666 24V14.6667M15.9999 24V14.6667M21.3333 24V14.6667M26.6666 24V14.6667M1.33325 29.3334H30.6666M16.4932 2.86674L28.4932 7.66671C28.9599 7.85338 29.3333 8.41337 29.3333 8.9067V13.3334C29.3333 14.0667 28.7333 14.6667 27.9999 14.6667H3.99992C3.26659 14.6667 2.66659 14.0667 2.66659 13.3334V8.9067C2.66659 8.41337 3.03993 7.85338 3.50659 7.66671L15.5066 2.86674C15.7733 2.76008 16.2266 2.76008 16.4932 2.86674ZM29.3333 29.3334H2.66659V25.3334C2.66659 24.6 3.26659 24 3.99992 24H27.9999C28.7333 24 29.3333 24.6 29.3333 25.3334V29.3334ZM17.9999 9.33337C17.9999 10.4379 17.1045 11.3334 15.9999 11.3334C14.8953 11.3334 13.9999 10.4379 13.9999 9.33337C13.9999 8.2288 14.8953 7.33337 15.9999 7.33337C17.1045 7.33337 17.9999 8.2288 17.9999 9.33337Z" stroke="#047AE9" stroke-width="2" stroke-miterlimit="10" stroke-linecap="round" stroke-linejoin="round"/>
</svg>
