<svg width="32" height="32" viewBox="0 0 32 32" fill="none" xmlns="http://www.w3.org/2000/svg">
<path d="M29.3334 20C29.3334 25.16 25.1601 29.3333 20.0001 29.3333L21.4001 27M2.66675 12C2.66675 6.83996 6.84008 2.66663 12.0001 2.66663L10.6001 4.99996M18.2667 5.93327L23.5733 8.99992L28.8267 5.94661M23.5733 14.4267V8.98669M3.13338 20.5999L8.42672 23.6665L13.6934 20.6132M8.4267 29.0932V23.6532M22.32 2.94663L19.12 4.7199C18.4 5.1199 17.8 6.13322 17.8 6.95989V10.3466C17.8 11.1733 18.3867 12.1866 19.12 12.5866L22.32 14.36C23 14.7466 24.12 14.7466 24.8134 14.36L28.0134 12.5866C28.7334 12.1866 29.3334 11.1733 29.3334 10.3466V6.95989C29.3334 6.13322 28.7467 5.1199 28.0134 4.7199L24.8134 2.94663C24.1334 2.57329 23.0134 2.57329 22.32 2.94663ZM7.18675 17.6133L3.98676 19.3866C3.26676 19.7866 2.66675 20.7999 2.66675 21.6266V25.0133C2.66675 25.8399 3.25342 26.8533 3.98676 27.2533L7.18675 29.0266C7.86675 29.4133 8.98674 29.4133 9.68007 29.0266L12.8801 27.2533C13.6001 26.8533 14.2001 25.8399 14.2001 25.0133V21.6266C14.2001 20.7999 13.6134 19.7866 12.8801 19.3866L9.68007 17.6133C8.98674 17.24 7.86675 17.24 7.18675 17.6133Z" stroke="#047AE9" stroke-width="2" stroke-linecap="round" stroke-linejoin="round"/>
</svg>
