<svg width="32" height="32" viewBox="0 0 32 32" fill="none" xmlns="http://www.w3.org/2000/svg">
<path d="M10.6667 13.6666H21.3333M10.6667 18.3333H18.6667M26.6667 9.38663V22.6133C26.6667 24.64 26.48 26.08 26 27.1066C26 27.12 25.9866 27.1466 25.9733 27.16C25.68 27.5333 25.2933 27.72 24.84 27.72C24.1333 27.72 23.28 27.2533 22.36 26.2666C21.2667 25.0933 19.5866 25.1866 18.6266 26.4666L17.28 28.2533C16.7467 28.9733 16.04 29.3333 15.3333 29.3333C14.6267 29.3333 13.92 28.9733 13.3866 28.2533L12.0267 26.4533C11.08 25.1866 9.41332 25.0933 8.31999 26.2533L8.30664 26.2666C6.79997 27.88 5.46669 28.12 4.69336 27.16C4.68003 27.1466 4.66667 27.12 4.66667 27.1066C4.18667 26.08 4 24.64 4 22.6133V9.38663C4 7.35996 4.18667 5.91996 4.66667 4.89329C4.66667 4.87996 4.66669 4.86663 4.69336 4.85329C5.45336 3.87996 6.79997 4.11996 8.30664 5.73329L8.31999 5.74663C9.41332 6.90663 11.08 6.81329 12.0267 5.54663L13.3866 3.74663C13.92 3.02663 14.6267 2.66663 15.3333 2.66663C16.04 2.66663 16.7467 3.02663 17.28 3.74663L18.6266 5.53329C19.5866 6.81329 21.2667 6.90662 22.36 5.73329C23.28 4.74662 24.1333 4.27996 24.84 4.27996C25.2933 4.27996 25.68 4.47996 25.9733 4.85329C26 4.86663 26 4.87996 26 4.89329C26.48 5.91996 26.6667 7.35996 26.6667 9.38663Z" stroke="#047AE9" stroke-width="2" stroke-linecap="round" stroke-linejoin="round"/>
</svg>
