<svg width="32" height="32" viewBox="0 0 32 32" fill="none" xmlns="http://www.w3.org/2000/svg">
<path d="M7.33 6.83366L7.43058 6.84342C7.65865 6.88987 7.83 7.09187 7.83 7.33366C7.82984 7.57528 7.65852 7.77647 7.43058 7.82292L7.33 7.83366H7.31535C7.03931 7.83366 6.81552 7.60965 6.81535 7.33366C6.81535 7.05752 7.03921 6.83366 7.31535 6.83366H7.33Z" fill="#047AE9"/>
<path d="M24.6633 22.8337L24.7639 22.8434C24.992 22.8899 25.1633 23.0919 25.1633 23.3337C25.1632 23.5753 24.9919 23.7765 24.7639 23.8229L24.6633 23.8337H24.6487C24.3726 23.8337 24.1489 23.6097 24.1487 23.3337C24.1487 23.0575 24.3725 22.8337 24.6487 22.8337H24.6633Z" fill="#047AE9"/>
<path d="M2.75991 6.13334L3.73414 6.3589L3.73421 6.35861L2.75991 6.13334ZM11.8266 6.13334L10.8517 6.35594L10.8523 6.3589L11.8266 6.13334ZM9.23991 12.56L9.92913 13.2846L9.93069 13.2831L9.23991 12.56ZM5.33324 12.56L4.63917 13.28L4.64871 13.289L5.33324 12.56ZM20.0932 22.1333L21.0675 22.3589L21.0675 22.3586L20.0932 22.1333ZM29.2132 22.1333L28.2389 22.3586L28.239 22.3589L29.2132 22.1333ZM26.6132 28.56L25.9257 27.8339L25.924 27.8354L26.6132 28.56ZM22.6932 28.56L22.0057 29.2861L22.0087 29.289L22.6932 28.56ZM15.9999 5.66667C15.4476 5.66667 14.9999 6.11438 14.9999 6.66667C14.9999 7.21895 15.4476 7.66667 15.9999 7.66667V5.66667ZM21.3333 11.3467L21.9917 12.0993L21.9929 12.0982L21.3333 11.3467ZM10.6799 20.6667L11.3365 21.4209L11.3384 21.4193L10.6799 20.6667ZM15.9999 26.3333C16.5522 26.3333 16.9999 25.8856 16.9999 25.3333C16.9999 24.781 16.5522 24.3333 15.9999 24.3333V26.3333ZM7.33 6.83366L7.42663 5.83834C7.39451 5.83522 7.36226 5.83366 7.33 5.83366V6.83366ZM7.43058 6.84342L7.63014 5.86354C7.59612 5.85661 7.56177 5.85146 7.52722 5.8481L7.43058 6.84342ZM7.83 7.33366L8.83 7.3343V7.33366H7.83ZM7.43058 7.82292L7.53678 8.81726C7.56815 8.81391 7.59935 8.80908 7.63026 8.80278L7.43058 7.82292ZM7.33 7.83366V8.83366C7.36547 8.83366 7.40092 8.83177 7.43619 8.828L7.33 7.83366ZM6.81535 7.33366H5.81535L5.81535 7.3343L6.81535 7.33366ZM24.6633 22.8337L24.76 21.8383C24.7278 21.8352 24.6956 21.8337 24.6633 21.8337V22.8337ZM24.7639 22.8434L24.9635 21.8635C24.9295 21.8566 24.8951 21.8515 24.8605 21.8481L24.7639 22.8434ZM25.1633 23.3337L26.1633 23.3343V23.3337H25.1633ZM24.7639 23.8229L24.8701 24.8173C24.9015 24.8139 24.9327 24.8091 24.9636 24.8028L24.7639 23.8229ZM24.6633 23.8337V24.8337C24.6988 24.8337 24.7343 24.8318 24.7695 24.828L24.6633 23.8337ZM24.1487 23.3337H23.1487V23.3343L24.1487 23.3337ZM2.75991 6.13334L3.73421 6.35861C4.1414 4.59751 5.66052 3.67334 7.29824 3.67334C8.93579 3.67334 10.45 4.59692 10.8517 6.35594L11.8266 6.13334L12.8015 5.91074C12.1498 3.05643 9.66403 1.67334 7.29824 1.67334C4.93264 1.67334 2.44509 3.05584 1.78562 5.90807L2.75991 6.13334ZM11.8266 6.13334L10.8523 6.3589C11.3499 8.50805 10.0006 10.4503 8.54913 11.8369L9.23991 12.56L9.93069 13.2831C11.4659 11.8164 13.5566 9.17196 12.8008 5.90778L11.8266 6.13334ZM9.23991 12.56L8.5507 11.8354C7.84906 12.5029 6.73198 12.5017 6.01778 11.831L5.33324 12.56L4.64871 13.289C6.12118 14.6717 8.4441 14.6972 9.92913 13.2846L9.23991 12.56ZM5.33324 12.56L6.02726 11.84C4.58649 10.4512 3.23633 8.50903 3.73414 6.3589L2.75991 6.13334L1.78568 5.90778C1.03016 9.17098 3.12 11.8155 4.63923 13.28L5.33324 12.56ZM20.0932 22.1333L21.0675 22.3586C21.4739 20.601 22.9997 19.6733 24.6532 19.6733C26.3068 19.6733 27.8326 20.601 28.2389 22.3586L29.2132 22.1333L30.1875 21.9081C29.5273 19.0524 27.0264 17.6733 24.6532 17.6733C22.2801 17.6733 19.7792 19.0524 19.1189 21.9081L20.0932 22.1333ZM29.2132 22.1333L28.239 22.3589C28.7364 24.5071 27.3879 26.4493 25.9257 27.8339L26.6132 28.56L27.3008 29.2861C28.8519 27.8174 30.9434 25.1729 30.1875 21.9078L29.2132 22.1333ZM26.6132 28.56L25.924 27.8354C25.2224 28.5029 24.092 28.5017 23.3778 27.831L22.6932 28.56L22.0087 29.289C23.4812 30.6717 25.8174 30.6971 27.3025 29.2846L26.6132 28.56ZM22.6932 28.56L23.3808 27.8339C21.9186 26.4493 20.5701 24.5071 21.0675 22.3589L20.0932 22.1333L19.119 21.9078C18.363 25.1729 20.4545 27.8173 22.0057 29.2861L22.6932 28.56ZM15.9999 6.66667V7.66667H19.5733V6.66667V5.66667H15.9999V6.66667ZM19.5733 6.66667V7.66667C21.1148 7.66667 21.8354 9.5754 20.6736 10.5951L21.3333 11.3467L21.9929 12.0982C24.5378 9.86459 22.965 5.66667 19.5733 5.66667V6.66667ZM21.3333 11.3467L20.6748 10.594L10.0215 19.914L10.6799 20.6667L11.3384 21.4193L21.9917 12.0993L21.3333 11.3467ZM10.6799 20.6667L10.0233 19.9124C7.47134 22.1339 9.05032 26.3333 12.4266 26.3333V25.3333V24.3333C10.8962 24.3333 10.1818 22.4261 11.3365 21.4209L10.6799 20.6667ZM12.4266 25.3333V26.3333H15.9999V25.3333V24.3333H12.4266V25.3333ZM7.33 6.83366L7.23336 7.82898L7.33395 7.83874L7.43058 6.84342L7.52722 5.8481L7.42663 5.83834L7.33 6.83366ZM7.43058 6.84342L7.23103 7.82331C7.00102 7.77647 6.83 7.57507 6.83 7.33366H7.83H8.83C8.83 6.60867 8.31629 6.00327 7.63014 5.86354L7.43058 6.84342ZM7.83 7.33366L6.83 7.33302C6.83015 7.09002 7.00275 6.88955 7.2309 6.84306L7.43058 7.82292L7.63026 8.80278C8.31429 8.66338 8.82953 8.06053 8.83 7.3343L7.83 7.33366ZM7.43058 7.82292L7.32439 6.82857L7.2238 6.83931L7.33 7.83366L7.43619 8.828L7.53678 8.81726L7.43058 7.82292ZM7.33 7.83366V6.83366H7.31535V7.83366V8.83366H7.33V7.83366ZM7.31535 7.83366V6.83366C7.59223 6.83366 7.81517 7.05786 7.81535 7.33302L6.81535 7.33366L5.81535 7.3343C5.81588 8.16144 6.4864 8.83366 7.31535 8.83366V7.83366ZM6.81535 7.33366H7.81535C7.81535 7.6098 7.59149 7.83366 7.31535 7.83366V6.83366V5.83366C6.48692 5.83366 5.81535 6.50523 5.81535 7.33366H6.81535ZM7.31535 6.83366V7.83366H7.33V6.83366V5.83366H7.31535V6.83366ZM24.6633 22.8337L24.5667 23.829L24.6673 23.8387L24.7639 22.8434L24.8605 21.8481L24.76 21.8383L24.6633 22.8337ZM24.7639 22.8434L24.5644 23.8233C24.3344 23.7765 24.1633 23.5751 24.1633 23.3337H25.1633H26.1633C26.1633 22.6087 25.6496 22.0033 24.9635 21.8635L24.7639 22.8434ZM25.1633 23.3337L24.1633 23.333C24.1635 23.09 24.3361 22.8895 24.5642 22.8431L24.7639 23.8229L24.9636 24.8028C25.6476 24.6634 26.1629 24.0605 26.1633 23.3343L25.1633 23.3337ZM24.7639 23.8229L24.6577 22.8286L24.5571 22.8393L24.6633 23.8337L24.7695 24.828L24.8701 24.8173L24.7639 23.8229ZM24.6633 23.8337V22.8337H24.6487V23.8337V24.8337H24.6633V23.8337ZM24.6487 23.8337V22.8337C24.9256 22.8337 25.1485 23.0579 25.1487 23.333L24.1487 23.3337L23.1487 23.3343C23.1492 24.1614 23.8197 24.8337 24.6487 24.8337V23.8337ZM24.1487 23.3337H25.1487C25.1487 23.6098 24.9248 23.8337 24.6487 23.8337V22.8337V21.8337C23.8203 21.8337 23.1487 22.5052 23.1487 23.3337H24.1487ZM24.6487 22.8337V23.8337H24.6633V22.8337V21.8337H24.6487V22.8337Z" fill="#047AE9"/>
</svg>
