<svg width="32" height="32" viewBox="0 0 32 32" fill="none" xmlns="http://www.w3.org/2000/svg">
<path d="M4 12.1467V19.84C4 22.6667 4 22.6667 6.66667 24.4667L14 28.7067C15.1067 29.3467 16.9067 29.3467 18 28.7067L25.3333 24.4667C28 22.6667 28 22.6667 28 19.8534V12.1467C28 9.33335 28 9.33335 25.3333 7.53335L18 3.29335C16.9067 2.65335 15.1067 2.65335 14 3.29335L6.66667 7.53335C4 9.33335 4 9.33335 4 12.1467Z" stroke="#047AE9" stroke-width="2" stroke-linecap="round" stroke-linejoin="round"/>
<path d="M16 20C18.2091 20 20 18.2092 20 16C20 13.7909 18.2091 12 16 12C13.7909 12 12 13.7909 12 16C12 18.2092 13.7909 20 16 20Z" stroke="#047AE9" stroke-width="2" stroke-linecap="round" stroke-linejoin="round"/>
</svg>
