<svg width="32" height="32" viewBox="0 0 32 32" fill="none" xmlns="http://www.w3.org/2000/svg">
<path d="M16.0001 18.6666H17.3334C18.8001 18.6666 20.0001 17.4666 20.0001 16M20.0001 16V2.66663H8.00008C6.00008 2.66663 4.25343 3.77328 3.34676 5.39994M20.0001 16L20.0001 6.66663H22.4534C23.4134 6.66663 24.2934 7.18664 24.7734 8.01331L27.0534 12M2.66675 22.6666C2.66675 24.88 4.45341 26.6666 6.66675 26.6666H8.00008M8.00008 26.6666C8.00008 25.2 9.20008 24 10.6667 24M8.00008 26.6666C8.00008 28.1394 9.19399 29.3333 10.6667 29.3333C12.1395 29.3333 13.3334 28.1394 13.3334 26.6666M8.00008 26.6666C8.00008 25.1939 9.19399 24 10.6667 24M10.6667 24C12.1334 24 13.3334 25.2 13.3334 26.6666M10.6667 24C12.1395 24 13.3334 25.1939 13.3334 26.6666M13.3334 26.6666H18.6667M18.6667 26.6666C18.6667 25.2 19.8667 24 21.3334 24M18.6667 26.6666C18.6667 28.1394 19.8607 29.3333 21.3334 29.3333C22.8062 29.3333 24.0001 28.1394 24.0001 26.6666M18.6667 26.6666C18.6667 25.1939 19.8607 24 21.3334 24M21.3334 24C22.8001 24 24.0001 25.2 24.0001 26.6666M21.3334 24C22.8062 24 24.0001 25.1939 24.0001 26.6666M24.0001 26.6666H25.3334C27.5467 26.6666 29.3334 24.88 29.3334 22.6666V18.6666M29.3334 18.6666H25.3334C24.6001 18.6666 24.0001 18.0666 24.0001 17.3333V13.3333C24.0001 12.6 24.6001 12 25.3334 12H27.0534M29.3334 18.6666L29.3334 16L27.0534 12M2.66675 10.6666H10.6667M2.66675 14.6666H8.00008M2.66675 18.6666H5.33341" stroke="#047AE9" stroke-width="2" stroke-linecap="round" stroke-linejoin="round"/>
</svg>
