<svg width="32" height="32" viewBox="0 0 32 32" fill="none" xmlns="http://www.w3.org/2000/svg">
<path d="M11.2266 28.08C11.7199 27.28 11.9999 26.3333 11.9999 25.3333C11.9999 22.3866 9.61325 20 6.66659 20M11.2266 28.08C10.3066 29.6266 8.61325 30.6666 6.66659 30.6666C4.71992 30.6666 3.02659 29.6266 2.10659 28.08C1.61325 27.28 1.33325 26.3333 1.33325 25.3333C1.33325 22.3866 3.71992 20 6.66659 20M11.2266 28.08C10.9466 28.56 10.5868 28.9866 10.1735 29.3333H22.6668C26.6668 29.3333 29.3335 26.6666 29.3335 22.6666V16C29.3335 12.3466 27.1068 9.79995 23.6668 9.39995C23.3468 9.34662 23.0135 9.3333 22.6668 9.3333H9.33351C8.96018 9.3333 8.60018 9.35996 8.25351 9.4133C4.85351 9.83996 2.66685 12.3733 2.66685 16V21.8133C3.64018 20.7066 5.06659 20 6.66659 20M4.58853 25.3327L5.90853 26.6526L8.74853 24.026M29.3335 16.6666H25.3335C23.8668 16.6666 22.6668 17.8666 22.6668 19.3333C22.6668 20.8 23.8668 22 25.3335 22H29.3335M23.6685 9.39992C23.3485 9.34658 23.0151 9.33327 22.6685 9.33327H9.33513C8.9618 9.33327 8.60179 9.35993 8.25513 9.41326C8.44179 9.03993 8.70846 8.69331 9.02846 8.37331L13.3618 4.02663C15.1885 2.21329 18.1485 2.21329 19.9751 4.02663L22.3085 6.38657C23.1618 7.22657 23.6151 8.29325 23.6685 9.39992Z" stroke="#047AE9" stroke-width="2" stroke-linecap="round" stroke-linejoin="round"/>
</svg>
