<svg width="41" height="40" viewBox="0 0 41 40" fill="none" xmlns="http://www.w3.org/2000/svg">
<path d="M20.807 22.083C21.2211 22.083 21.5568 22.419 21.557 22.833C21.557 23.2473 21.2212 23.583 20.807 23.583H20.7923C20.3781 23.583 20.0423 23.2473 20.0423 22.833C20.0425 22.419 20.3782 22.083 20.7923 22.083H20.807Z" fill="#047AE9"/>
<path d="M14.6383 22.083C15.0525 22.083 15.3882 22.419 15.3883 22.833C15.3883 23.2473 15.0526 23.583 14.6383 23.583H14.6237C14.2095 23.583 13.8737 23.2473 13.8737 22.833C13.8739 22.419 14.2096 22.083 14.6237 22.083H14.6383Z" fill="#047AE9"/>
<path d="M14.6383 27.083C15.0525 27.083 15.3882 27.419 15.3883 27.833C15.3883 28.2473 15.0526 28.583 14.6383 28.583H14.6237C14.2095 28.583 13.8737 28.2473 13.8737 27.833C13.8739 27.419 14.2096 27.083 14.6237 27.083H14.6383Z" fill="#047AE9"/>
<path d="M14.1331 3.33334V8.33334M27.4665 3.33334V8.33334M6.63314 15.15H34.9665M26.4165 36.6667C27.5831 37.7167 29.1165 38.3333 30.7998 38.3333C33.2331 38.3333 35.3498 37.0333 36.4998 35.1C37.1165 34.1 37.4665 32.9167 37.4665 31.6667C37.4665 29.9833 36.8331 28.45 35.7998 27.2667M26.4165 36.6667C25.8998 36.2333 25.4498 35.7 25.0998 35.1C24.4831 34.1 24.1331 32.9167 24.1331 31.6667C24.1331 27.9833 27.1165 25 30.7998 25C32.7998 25 34.5831 25.8833 35.7998 27.2667M26.4165 36.6667L14.1331 36.6667C8.2998 36.6667 5.7998 33.3333 5.7998 28.3333V14.1667C5.7998 9.16668 8.2998 5.83334 14.1331 5.83334H27.4665C33.2998 5.83334 35.7998 9.16668 35.7998 14.1667V27.2667M28.1998 31.6667L29.8498 33.3167L33.3998 30.0333M20.807 22.083C21.2211 22.083 21.5568 22.419 21.557 22.833C21.557 23.2473 21.2212 23.583 20.807 23.583H20.7923C20.3781 23.583 20.0423 23.2473 20.0423 22.833C20.0425 22.419 20.3782 22.083 20.7923 22.083H20.807ZM14.6383 22.083C15.0525 22.083 15.3882 22.419 15.3883 22.833C15.3883 23.2473 15.0526 23.583 14.6383 23.583H14.6237C14.2095 23.583 13.8737 23.2473 13.8737 22.833C13.8739 22.419 14.2096 22.083 14.6237 22.083H14.6383ZM14.6383 27.083C15.0525 27.083 15.3882 27.419 15.3883 27.833C15.3883 28.2473 15.0526 28.583 14.6383 28.583H14.6237C14.2095 28.583 13.8737 28.2473 13.8737 27.833C13.8739 27.419 14.2096 27.083 14.6237 27.083H14.6383Z" stroke="#047AE9" stroke-width="2.5" stroke-linecap="round" stroke-linejoin="round"/>
</svg>
