<svg width="40" height="40" viewBox="0 0 40 40" fill="none" xmlns="http://www.w3.org/2000/svg">
<path d="M5.28351 12.3999L20.0002 20.9165L34.6168 12.4498M20.0001 36.0165V20.8998M28.3334 22.0667V15.9667L12.5167 6.83331M16.55 4.13325L7.65003 9.08331C5.63337 10.2 3.9834 12.9999 3.9834 15.2999V24.7166C3.9834 27.0166 5.63337 29.8166 7.65003 30.9333L16.55 35.8833C18.45 36.9333 21.5667 36.9333 23.4667 35.8833L32.3667 30.9333C34.3834 29.8166 36.0334 27.0166 36.0334 24.7166V15.2999C36.0334 12.9999 34.3834 10.2 32.3667 9.08331L23.4667 4.13325C21.55 3.06659 18.45 3.06659 16.55 4.13325Z" stroke="#047AE9" stroke-width="2.5" stroke-linecap="round" stroke-linejoin="round"/>
</svg>
