<svg width="40" height="40" viewBox="0 0 40 40" fill="none" xmlns="http://www.w3.org/2000/svg">
<path d="M20.0072 22.0831C20.4213 22.0831 20.757 22.419 20.7572 22.8331C20.7572 23.2473 20.4214 23.5831 20.0072 23.5831H19.9925C19.5783 23.5831 19.2425 23.2473 19.2425 22.8331C19.2427 22.419 19.5784 22.0831 19.9925 22.0831H20.0072Z" fill="#047AE9"/>
<path d="M13.8385 22.0831C14.2526 22.0831 14.5884 22.419 14.5885 22.8331C14.5885 23.2473 14.2528 23.5831 13.8385 23.5831H13.8239C13.4097 23.5831 13.0739 23.2473 13.0739 22.8331C13.0741 22.419 13.4098 22.0831 13.8239 22.0831H13.8385Z" fill="#047AE9"/>
<path d="M13.8385 27.0831C14.2526 27.0831 14.5884 27.419 14.5885 27.8331C14.5885 28.2473 14.2528 28.5831 13.8385 28.5831H13.8239C13.4097 28.5831 13.0739 28.2473 13.0739 27.8331C13.0741 27.419 13.4098 27.0831 13.8239 27.0831H13.8385Z" fill="#047AE9"/>
<path d="M13.3333 3.33337V8.33337M26.6667 3.33337V8.33337M5.83333 15.15H34.1667M25.6167 36.6667C26.7833 37.7167 28.3167 38.3334 30 38.3334C32.4333 38.3334 34.55 37.0334 35.7 35.1C36.3167 34.1 36.6667 32.9167 36.6667 31.6667C36.6667 29.9834 36.0333 28.45 35 27.2667M25.6167 36.6667C25.1 36.2334 24.65 35.7 24.3 35.1C23.6833 34.1 23.3333 32.9167 23.3333 31.6667C23.3333 27.9834 26.3167 25 30 25C32 25 33.7833 25.8834 35 27.2667M25.6167 36.6667L13.3333 36.6667C7.5 36.6667 5 33.3334 5 28.3334V14.1667C5 9.16671 7.5 5.83337 13.3333 5.83337H26.6667C32.5 5.83337 35 9.16671 35 14.1667V27.2667M27.4 31.6667L29.05 33.3167L32.6 30.0334M20.0072 22.0831C20.4213 22.0831 20.757 22.419 20.7572 22.8331C20.7572 23.2473 20.4214 23.5831 20.0072 23.5831H19.9925C19.5783 23.5831 19.2425 23.2473 19.2425 22.8331C19.2427 22.419 19.5784 22.0831 19.9925 22.0831H20.0072ZM13.8385 22.0831C14.2526 22.0831 14.5884 22.419 14.5885 22.8331C14.5885 23.2473 14.2528 23.5831 13.8385 23.5831H13.8239C13.4097 23.5831 13.0739 23.2473 13.0739 22.8331C13.0741 22.419 13.4098 22.0831 13.8239 22.0831H13.8385ZM13.8385 27.0831C14.2526 27.0831 14.5884 27.419 14.5885 27.8331C14.5885 28.2473 14.2528 28.5831 13.8385 28.5831H13.8239C13.4097 28.5831 13.0739 28.2473 13.0739 27.8331C13.0741 27.419 13.4098 27.0831 13.8239 27.0831H13.8385Z" stroke="#047AE9" stroke-width="2.5" stroke-linecap="round" stroke-linejoin="round"/>
</svg>
