<svg width="40" height="40" viewBox="0 0 40 40" fill="none" xmlns="http://www.w3.org/2000/svg">
<path d="M36.6666 18.1667V6.83337C36.6666 4.33337 35.5999 3.33337 32.9499 3.33337H26.2166C23.5666 3.33337 22.4999 4.33337 22.4999 6.83337V18.1667C22.4999 20.6667 23.5666 21.6667 26.2166 21.6667H32.9499C35.5999 21.6667 36.6666 20.6667 36.6666 18.1667Z" stroke="#047AE9" stroke-width="2.5" stroke-linecap="round" stroke-linejoin="round"/>
<path d="M36.6666 33.1667V30.1667C36.6666 27.6667 35.5999 26.6667 32.9499 26.6667H26.2166C23.5666 26.6667 22.4999 27.6667 22.4999 30.1667V33.1667C22.4999 35.6667 23.5666 36.6667 26.2166 36.6667H32.9499C35.5999 36.6667 36.6666 35.6667 36.6666 33.1667Z" stroke="#047AE9" stroke-width="2.5" stroke-linecap="round" stroke-linejoin="round"/>
<path d="M17.4999 21.8334V33.1667C17.4999 35.6667 16.4333 36.6667 13.7833 36.6667H7.04992C4.39992 36.6667 3.33325 35.6667 3.33325 33.1667V21.8334C3.33325 19.3334 4.39992 18.3334 7.04992 18.3334H13.7833C16.4333 18.3334 17.4999 19.3334 17.4999 21.8334Z" stroke="#047AE9" stroke-width="2.5" stroke-linecap="round" stroke-linejoin="round"/>
<path d="M17.4999 6.83337V9.83337C17.4999 12.3334 16.4333 13.3334 13.7833 13.3334H7.04992C4.39992 13.3334 3.33325 12.3334 3.33325 9.83337V6.83337C3.33325 4.33337 4.39992 3.33337 7.04992 3.33337H13.7833C16.4333 3.33337 17.4999 4.33337 17.4999 6.83337Z" stroke="#047AE9" stroke-width="2.5" stroke-linecap="round" stroke-linejoin="round"/>
</svg>
