<svg width="40" height="40" viewBox="0 0 40 40" fill="none" xmlns="http://www.w3.org/2000/svg">
<path d="M17.6335 34.5832L18.5174 33.6994L18.4614 33.6433L18.3987 33.5948L17.6335 34.5832ZM31.8002 32.0832L30.6127 31.6928L30.5985 31.736L30.5875 31.7801L31.8002 32.0832ZM35.8002 19.9166L34.623 19.4962L34.6177 19.5111L34.6127 19.5262L35.8002 19.9166ZM24.3002 13.5832L23.0651 13.3903L23.0639 13.3984L23.0627 13.4065L24.3002 13.5832ZM25.1335 8.24991L23.9133 7.97874L23.9046 8.0176L23.8985 8.05693L25.1335 8.24991ZM22.9668 4.58324L22.5279 5.75365L22.5496 5.76178L22.5715 5.76909L22.9668 4.58324ZM19.3002 5.74991L20.3376 6.44721L20.3402 6.44328L19.3002 5.74991ZM12.4668 30.5832L11.7016 31.5716L16.8683 35.5716L17.6335 34.5832L18.3987 33.5948L13.232 29.5948L12.4668 30.5832ZM17.6335 34.5832L16.7496 35.4671C17.3052 36.0227 18.0885 36.3466 18.7484 36.5351C19.439 36.7324 20.1794 36.8332 20.8002 36.8332V35.5832V34.3332C20.4209 34.3332 19.9114 34.2674 19.4352 34.1313C18.9285 33.9865 18.6285 33.8104 18.5174 33.6994L17.6335 34.5832ZM20.8002 35.5832V36.8332H27.1335V35.5832V34.3332H20.8002V35.5832ZM27.1335 35.5832V36.8332C28.4331 36.8332 29.7285 36.3523 30.7675 35.592C31.8074 34.8311 32.6783 33.7247 33.0128 32.3864L31.8002 32.0832L30.5875 31.7801C30.4221 32.4418 29.9596 33.0854 29.2912 33.5745C28.6219 34.0642 27.8339 34.3332 27.1335 34.3332V35.5832ZM31.8002 32.0832L32.9876 32.4736L36.9876 20.307L35.8002 19.9166L34.6127 19.5262L30.6127 31.6928L31.8002 32.0832ZM35.8002 19.9166L36.9773 20.337C37.5174 18.8249 37.3309 17.2975 36.4732 16.1334C35.6213 14.9773 34.2217 14.3332 32.6335 14.3332V15.5832V16.8332C33.5453 16.8332 34.1457 17.1892 34.4605 17.6164C34.7694 18.0356 34.9163 18.6749 34.623 19.4962L35.8002 19.9166ZM32.6335 15.5832V14.3332H25.9668V15.5832V16.8332H32.6335V15.5832ZM25.9668 15.5832V14.3332C25.8171 14.3332 25.703 14.2727 25.6333 14.1937C25.5726 14.1249 25.504 13.9956 25.5376 13.76L24.3002 13.5832L23.0627 13.4065C22.7854 15.3476 24.2279 16.8332 25.9668 16.8332V15.5832ZM24.3002 13.5832L25.5352 13.7762L26.3685 8.44288L25.1335 8.24991L23.8985 8.05693L23.0651 13.3903L24.3002 13.5832ZM25.1335 8.24991L26.3537 8.52107C26.8359 6.3511 25.4254 4.08514 23.3621 3.39739L22.9668 4.58324L22.5715 5.76909C23.5083 6.08134 24.0977 7.14871 23.9133 7.97874L25.1335 8.24991ZM22.9668 4.58324L23.4057 3.41283C22.4107 3.03969 21.3553 3.12011 20.4771 3.42196C19.6074 3.72093 18.7753 4.28375 18.2601 5.05653L19.3002 5.74991L20.3402 6.44328C20.4917 6.21607 20.8262 5.94555 21.2898 5.78618C21.7451 5.6297 22.1896 5.62679 22.5279 5.75365L22.9668 4.58324ZM19.3002 5.74991L18.2627 5.05261L11.4294 15.2193L12.4668 15.9166L13.5043 16.6139L20.3376 6.4472L19.3002 5.74991ZM3.9668 30.5831H5.2168V14.2498H3.9668H2.7168V30.5831H3.9668ZM3.9668 14.2498H5.2168C5.2168 13.224 5.44179 12.8618 5.60631 12.71C5.7954 12.5354 6.22927 12.3331 7.30013 12.3331V11.0831V9.83313C6.03766 9.83313 4.80486 10.0475 3.91061 10.873C2.99181 11.7211 2.7168 12.9423 2.7168 14.2498H3.9668ZM7.30013 11.0831V12.3331H8.9668V11.0831V9.83313H7.30013V11.0831ZM8.9668 11.0831V12.3331C10.0377 12.3331 10.4715 12.5354 10.6606 12.71C10.8251 12.8618 11.0501 13.224 11.0501 14.2498H12.3001H13.5501C13.5501 12.9423 13.2751 11.7211 12.3563 10.873C11.4621 10.0475 10.2293 9.83313 8.9668 9.83313V11.0831ZM12.3001 14.2498H11.0501V30.5831H12.3001H13.5501V14.2498H12.3001ZM12.3001 30.5831H11.0501C11.0501 31.6089 10.8251 31.9711 10.6606 32.123C10.4715 32.2975 10.0377 32.4998 8.9668 32.4998V33.7498V34.9998C10.2293 34.9998 11.4621 34.7854 12.3563 33.96C13.2751 33.1118 13.5501 31.8907 13.5501 30.5831H12.3001ZM8.9668 33.7498V32.4998H7.30013V33.7498V34.9998H8.9668V33.7498ZM7.30013 33.7498V32.4998C6.22927 32.4998 5.7954 32.2975 5.60631 32.123C5.44179 31.9711 5.2168 31.6089 5.2168 30.5831H3.9668H2.7168C2.7168 31.8907 2.99181 33.1118 3.91061 33.96C4.80486 34.7854 6.03766 34.9998 7.30013 34.9998V33.7498Z" fill="#047AE9"/>
</svg>
