<svg width="40" height="40" viewBox="0 0 40 40" fill="none" xmlns="http://www.w3.org/2000/svg">
<path d="M26.5723 34.7657H12.4219V30.4754C13.227 30.9421 14.1605 31.211 15.1563 31.211H23.291C24.0459 31.211 24.6582 30.599 24.6582 29.8438C24.6582 29.0887 24.0459 28.4767 23.291 28.4767H15.1563C13.6484 28.4767 12.4219 27.2499 12.4219 25.7423V23.213C12.4219 23.2055 12.4208 23.198 12.4206 23.1906C14.5894 21.9035 17.0928 21.1481 19.7302 21.0866C19.8456 21.0909 20.3081 21.0909 20.4223 21.0869C21.7556 21.1168 23.0718 21.3203 24.3399 21.6941C25.0641 21.9075 25.8246 21.4933 26.038 20.7689C26.2019 20.2121 25.9942 19.6348 25.5602 19.3005C27.8711 17.6075 29.375 14.8748 29.375 11.797C29.375 6.67057 25.2043 2.50012 20.0781 2.50012C14.9517 2.50012 10.7813 6.67057 10.7813 11.797C10.7813 14.8395 12.2505 17.5456 14.5167 19.2425C12.4406 19.9259 10.4921 20.9889 8.78711 22.3913C5.661 24.9628 3.48739 28.5496 2.66681 32.4909C2.40966 33.7259 2.71781 34.9943 3.51196 35.9711C4.30209 36.9428 5.47408 37.5001 6.72698 37.5001H26.5723C27.3272 37.5001 27.9395 36.8881 27.9395 36.1329C27.9395 35.3777 27.3272 34.7657 26.5723 34.7657ZM13.5156 11.797C13.5156 8.17848 16.4594 5.23449 20.0781 5.23449C23.6966 5.23449 26.6406 8.17848 26.6406 11.797C26.6406 15.3049 23.874 18.1787 20.4082 18.3512C20.2982 18.3493 19.8648 18.3496 19.7582 18.3517C16.2877 18.1843 13.5156 15.3084 13.5156 11.797ZM5.63323 34.2458C5.3606 33.9104 5.25512 33.4741 5.34377 33.0482C5.9793 29.9947 7.53741 27.3103 9.68753 25.2619V34.7657H6.72698C6.14326 34.7657 5.79131 34.4399 5.63323 34.2458ZM35.9562 30.4094C35.2408 31.1248 34.3642 31.6201 33.4082 31.8618V36.1329C33.4082 36.8881 32.7959 37.5001 32.041 37.5001C31.2859 37.5001 30.6738 36.8881 30.6738 36.1329V31.8618C29.7179 31.6201 28.841 31.125 28.1256 30.4097C27.0799 29.3637 26.5039 27.9733 26.5039 26.4942C26.5039 25.0152 27.0799 23.6248 28.1256 22.5791C28.6596 22.045 29.5253 22.045 30.0591 22.5791C30.5932 23.1129 30.5932 23.9786 30.0591 24.5124C29.5296 25.0419 29.2383 25.7458 29.2383 26.4942C29.2383 27.2427 29.5296 27.9466 30.0591 28.4761C30.5884 29.0054 31.2923 29.297 32.041 29.297C32.7895 29.297 33.4934 29.0054 34.0226 28.4761C34.5522 27.9466 34.8438 27.2427 34.8438 26.4942C34.8438 25.7458 34.5522 25.0419 34.0226 24.5124C33.4888 23.9786 33.4888 23.1129 34.0226 22.5791C34.5567 22.045 35.4224 22.045 35.9562 22.5791C37.0021 23.6248 37.5781 25.0152 37.5781 26.4942C37.5781 27.9733 37.0021 29.3637 35.9562 30.4094Z" fill="#047AE9"/>
</svg>
