<svg width="41" height="40" viewBox="0 0 41 40" fill="none" xmlns="http://www.w3.org/2000/svg">
<path d="M9.56277 8.54207L9.6885 8.55428C9.97359 8.61234 10.1878 8.86484 10.1878 9.16707C10.1876 9.4691 9.97342 9.72058 9.6885 9.77865L9.56277 9.79207H9.54445C9.19941 9.79207 8.91967 9.51206 8.91945 9.16707C8.91945 8.8219 9.19928 8.54207 9.54445 8.54207H9.56277Z" fill="#047AE9"/>
<path d="M31.2294 28.5421L31.3552 28.5543C31.6403 28.6123 31.8544 28.8648 31.8544 29.1671C31.8542 29.4691 31.6401 29.7206 31.3552 29.7786L31.2294 29.7921H31.2111C30.8661 29.7921 30.5863 29.5121 30.5861 29.1671C30.5861 28.8219 30.8659 28.5421 31.2111 28.5421H31.2294Z" fill="#047AE9"/>
<path d="M3.85016 7.66668L5.06794 7.94863L5.06803 7.94826L3.85016 7.66668ZM15.1835 7.66668L13.9648 7.94492L13.9657 7.94863L15.1835 7.66668ZM11.9502 15.7L12.8117 16.6057L12.8136 16.6038L11.9502 15.7ZM7.06682 15.7L6.19931 16.6L6.2052 16.6056L6.21116 16.6112L7.06682 15.7ZM25.5168 27.6667L26.7346 27.9486L26.7347 27.9483L25.5168 27.6667ZM36.9168 27.6667L35.699 27.9483L35.699 27.9486L36.9168 27.6667ZM33.6668 35.7L32.8074 34.7924L32.8053 34.7943L33.6668 35.7ZM28.7668 35.7L27.9074 36.6077L27.9112 36.6112L28.7668 35.7ZM20.4002 7.08333C19.7098 7.08333 19.1502 7.64298 19.1502 8.33333C19.1502 9.02369 19.7098 9.58333 20.4002 9.58333V8.33333V7.08333ZM27.0668 14.1833L27.8899 15.1241L27.8914 15.1228L27.0668 14.1833ZM13.7502 25.8333L14.5709 26.7762L14.5732 26.7741L13.7502 25.8333ZM20.4002 32.9167C21.0905 32.9167 21.6502 32.357 21.6502 31.6667C21.6502 30.9763 21.0905 30.4167 20.4002 30.4167V31.6667V32.9167ZM9.56277 8.54207L9.68356 7.29792C9.64341 7.29403 9.6031 7.29207 9.56277 7.29207V8.54207ZM9.6885 8.55428L9.93794 7.32942C9.89542 7.32076 9.85248 7.31432 9.80929 7.31013L9.6885 8.55428ZM10.1878 9.16707L11.4378 9.16787V9.16707H10.1878ZM9.6885 9.77865L9.82124 11.0216C9.86046 11.0174 9.89945 11.0113 9.9381 11.0035L9.6885 9.77865ZM9.56277 9.79207V11.0421C9.60711 11.0421 9.65142 11.0397 9.69551 11.035L9.56277 9.79207ZM8.91945 9.16707L7.66945 9.16707L7.66946 9.16787L8.91945 9.16707ZM31.2294 28.5421L31.3502 27.2979C31.3101 27.294 31.2698 27.2921 31.2294 27.2921V28.5421ZM31.3552 28.5543L31.6046 27.3294C31.5621 27.3208 31.5191 27.3143 31.476 27.3101L31.3552 28.5543ZM31.8544 29.1671L33.1044 29.1679V29.1671H31.8544ZM31.3552 29.7786L31.4879 31.0216C31.5271 31.0174 31.5661 31.0113 31.6048 31.0035L31.3552 29.7786ZM31.2294 29.7921V31.0421C31.2738 31.0421 31.3181 31.0397 31.3622 31.035L31.2294 29.7921ZM30.5861 29.1671L29.3361 29.1671L29.3361 29.1679L30.5861 29.1671ZM3.85016 7.66668L5.06803 7.94826C5.57702 5.74688 7.47592 4.59167 9.52307 4.59167C11.57 4.59167 13.4628 5.74615 13.9649 7.94492L15.1835 7.66668L16.4021 7.38843C15.5875 3.82053 12.4803 2.09167 9.52307 2.09167C6.56606 2.09167 3.45663 3.8198 2.63229 7.38509L3.85016 7.66668ZM15.1835 7.66668L13.9657 7.94863C14.5877 10.6351 12.901 13.0628 11.0867 14.7962L11.9502 15.7L12.8136 16.6038C14.7326 14.7705 17.346 11.465 16.4013 7.38472L15.1835 7.66668ZM11.9502 15.7L11.0886 14.7943C10.2116 15.6286 8.81524 15.6271 7.92249 14.7888L7.06682 15.7L6.21116 16.6112C8.05174 18.3396 10.9554 18.3714 12.8117 16.6057L11.9502 15.7ZM7.06682 15.7L7.93434 14.8001C6.13338 13.064 4.44568 10.6363 5.06794 7.94863L3.85016 7.66668L2.63237 7.38472C1.68797 11.4637 4.30027 14.7694 6.19931 16.6L7.06682 15.7ZM25.5168 27.6667L26.7347 27.9483C27.2427 25.7512 29.1499 24.5917 31.2168 24.5917C33.2838 24.5917 35.191 25.7512 35.699 27.9483L36.9168 27.6667L38.1347 27.3851C37.3093 23.8154 34.1832 22.0917 31.2168 22.0917C28.2504 22.0917 25.1243 23.8154 24.299 27.3851L25.5168 27.6667ZM36.9168 27.6667L35.699 27.9486C36.3207 30.6338 34.6351 33.0617 32.8074 34.7924L33.6668 35.7L34.5263 36.6077C36.4652 34.7717 39.0796 31.4662 38.1346 27.3847L36.9168 27.6667ZM33.6668 35.7L32.8053 34.7943C31.9282 35.6286 30.5152 35.6271 29.6225 34.7888L28.7668 35.7L27.9112 36.6112C29.7518 38.3396 32.6721 38.3714 34.5283 36.6057L33.6668 35.7ZM28.7668 35.7L29.6263 34.7924C27.7985 33.0617 26.1129 30.6338 26.7346 27.9486L25.5168 27.6667L24.299 27.3847C23.3541 31.4662 25.9684 34.7717 27.9074 36.6077L28.7668 35.7ZM20.4002 8.33333V9.58333H24.8668V8.33333V7.08333H20.4002V8.33333ZM24.8668 8.33333V9.58333C26.7938 9.58333 27.6945 11.9693 26.2423 13.2439L27.0668 14.1833L27.8914 15.1228C31.0725 12.3307 29.1065 7.08333 24.8668 7.08333V8.33333ZM27.0668 14.1833L26.2438 13.2425L12.9271 24.8925L13.7502 25.8333L14.5732 26.7741L27.8899 15.1241L27.0668 14.1833ZM13.7502 25.8333L12.9295 24.8905C9.73944 27.6674 11.7132 32.9167 15.9335 32.9167V31.6667V30.4167C14.0205 30.4167 13.1276 28.0326 14.5709 26.7762L13.7502 25.8333ZM15.9335 31.6667V32.9167H20.4002V31.6667V30.4167H15.9335V31.6667ZM9.56277 8.54207L9.44197 9.78622L9.56771 9.79843L9.6885 8.55428L9.80929 7.31013L9.68356 7.29792L9.56277 8.54207ZM9.6885 8.55428L9.43906 9.77914C9.15154 9.72059 8.93777 9.46884 8.93777 9.16707H10.1878H11.4378C11.4378 8.26084 10.7956 7.50409 9.93794 7.32942L9.6885 8.55428ZM10.1878 9.16707L8.93777 9.16628C8.93796 8.86253 9.1537 8.61194 9.4389 8.55382L9.6885 9.77865L9.9381 11.0035C10.7931 10.8292 11.4372 10.0757 11.4378 9.16787L10.1878 9.16707ZM9.6885 9.77865L9.55576 8.53571L9.43003 8.54914L9.56277 9.79207L9.69551 11.035L9.82124 11.0216L9.6885 9.77865ZM9.56277 9.79207V8.54207H9.54445V9.79207V11.0421H9.56277V9.79207ZM9.54445 9.79207V8.54207C9.89056 8.54207 10.1692 8.82233 10.1695 9.16628L8.91945 9.16707L7.66946 9.16787C7.67011 10.2018 8.50826 11.0421 9.54445 11.0421V9.79207ZM8.91945 9.16707H10.1695C10.1695 9.51225 9.88963 9.79207 9.54445 9.79207V8.54207V7.29207C8.50892 7.29207 7.66945 8.13154 7.66945 9.16707H8.91945ZM9.54445 8.54207V9.79207H9.56277V8.54207V7.29207H9.54445V8.54207ZM31.2294 28.5421L31.1086 29.7862L31.2344 29.7984L31.3552 28.5543L31.476 27.3101L31.3502 27.2979L31.2294 28.5421ZM31.3552 28.5543L31.1057 29.7791C30.8182 29.7206 30.6044 29.4688 30.6044 29.1671H31.8544H33.1044C33.1044 28.2608 32.4623 27.5041 31.6046 27.3294L31.3552 28.5543ZM31.8544 29.1671L30.6044 29.1663C30.6046 28.8625 30.8204 28.6119 31.1056 28.5538L31.3552 29.7786L31.6048 31.0035C32.4598 30.8292 33.1039 30.0757 33.1044 29.1679L31.8544 29.1671ZM31.3552 29.7786L31.2224 28.5357L31.0967 28.5491L31.2294 29.7921L31.3622 31.035L31.4879 31.0216L31.3552 29.7786ZM31.2294 29.7921V28.5421H31.2111V29.7921V31.0421H31.2294V29.7921ZM31.2111 29.7921V28.5421C31.5572 28.5421 31.8359 28.8223 31.8361 29.1663L30.5861 29.1671L29.3361 29.1679C29.3368 30.2018 30.1749 31.0421 31.2111 31.0421V29.7921ZM30.5861 29.1671H31.8361C31.8361 29.5123 31.5563 29.7921 31.2111 29.7921V28.5421V27.2921C30.1756 27.2921 29.3361 28.1315 29.3361 29.1671H30.5861ZM31.2111 28.5421V29.7921H31.2294V28.5421V27.2921H31.2111V28.5421Z" fill="#047AE9"/>
</svg>
