<svg width="40" height="40" viewBox="0 0 40 40" fill="none" xmlns="http://www.w3.org/2000/svg">
<path d="M25.0001 20V3.33329H12.7334M25.0001 20C25.0001 21.8333 23.5001 23.3333 21.6667 23.3333H3.33339M25.0001 20V8.33329H28.0668C29.2668 8.33329 30.3668 8.98331 30.9668 10.0166L33.8167 15M3.33339 23.3333V12.7M3.33339 23.3333V28.3333C3.33339 31.1 5.56673 33.3333 8.33339 33.3333H10.0001M3.33339 12.7C4.55006 14.15 6.41677 15.05 8.48344 15C10.1668 14.9666 11.6834 14.3166 12.8167 13.2333C13.3334 12.8 13.7668 12.2499 14.1001 11.6499C14.7001 10.6333 15.0334 9.43325 15.0001 8.18325C14.9501 6.23325 14.0834 4.51663 12.7334 3.33329M3.33339 12.7C3.10006 12.45 2.90005 12.1667 2.71672 11.8833C2.06672 10.9 1.70004 9.73337 1.66671 8.48337C1.61671 6.38337 2.55003 4.46665 4.05003 3.21665C5.18336 2.28331 6.61666 1.69999 8.18333 1.66666C9.93333 1.63333 11.5334 2.26663 12.7334 3.33329M36.6667 23.3333V28.3333C36.6667 31.1 34.4334 33.3333 31.6667 33.3333H30.0001M36.6667 23.3333H31.6667C30.7501 23.3333 30.0001 22.5833 30.0001 21.6666V16.6666C30.0001 15.75 30.7501 15 31.6667 15H33.8167M36.6667 23.3333L36.6667 20L33.8167 15M30.0001 33.3333C30.0001 31.5 28.5001 30 26.6667 30M30.0001 33.3333C30.0001 35.1742 28.5077 36.6666 26.6667 36.6666C24.8258 36.6666 23.3334 35.1742 23.3334 33.3333M30.0001 33.3333C30.0001 31.4923 28.5077 30 26.6667 30M26.6667 30C24.8334 30 23.3334 31.5 23.3334 33.3333M26.6667 30C24.8258 30 23.3334 31.4923 23.3334 33.3333M23.3334 33.3333H16.6667M16.6667 33.3333C16.6667 31.5 15.1667 30 13.3334 30M16.6667 33.3333C16.6667 35.1742 15.1743 36.6666 13.3334 36.6666C11.4924 36.6666 10.0001 35.1742 10.0001 33.3333M16.6667 33.3333C16.6667 31.4923 15.1743 30 13.3334 30M13.3334 30C11.5001 30 10.0001 31.5 10.0001 33.3333M13.3334 30C11.4924 30 10.0001 31.4923 10.0001 33.3333M5.7334 8.38334L7.41675 9.98328L10.9 6.61658" stroke="#047AE9" stroke-width="2.5" stroke-linecap="round" stroke-linejoin="round"/>
</svg>
