<svg width="40" height="40" viewBox="0 0 40 40" fill="none" xmlns="http://www.w3.org/2000/svg">
<path d="M14.0332 35.1C14.6498 34.1 14.9998 32.9167 14.9998 31.6667C14.9998 27.9834 12.0165 25 8.33317 25M14.0332 35.1C12.8832 37.0334 10.7665 38.3334 8.33317 38.3334C5.89984 38.3334 3.78317 37.0334 2.63317 35.1C2.01651 34.1 1.6665 32.9167 1.6665 31.6667C1.6665 27.9834 4.64984 25 8.33317 25M14.0332 35.1C13.6832 35.7 13.2335 36.2334 12.7168 36.6667H28.3335C33.3335 36.6667 36.6668 33.3334 36.6668 28.3334V20.0001C36.6668 15.4334 33.8835 12.25 29.5835 11.75C29.1835 11.6834 28.7668 11.6667 28.3335 11.6667H11.6668C11.2002 11.6667 10.7502 11.7 10.3168 11.7667C6.06683 12.3 3.3335 15.4667 3.3335 20.0001V27.2667C4.55016 25.8834 6.33317 25 8.33317 25M5.7356 31.6659L7.3856 33.3159L10.9356 30.0326M36.6668 20.8334H31.6668C29.8335 20.8334 28.3335 22.3334 28.3335 24.1667C28.3335 26.0001 29.8335 27.5001 31.6668 27.5001H36.6668M29.5855 11.75C29.1855 11.6833 28.7688 11.6667 28.3355 11.6667H11.6688C11.2022 11.6667 10.7522 11.7 10.3188 11.7667C10.5522 11.3 10.8855 10.8667 11.2855 10.4667L16.7022 5.03337C18.9855 2.76671 22.6855 2.76671 24.9688 5.03337L27.8855 7.9833C28.9522 9.0333 29.5188 10.3667 29.5855 11.75Z" stroke="#047AE9" stroke-width="2.5" stroke-linecap="round" stroke-linejoin="round"/>
</svg>
